<?xml version="1.0" encoding="utf-8" standalone="no"?>
<!DOCTYPE svg PUBLIC "-//W3C//DTD SVG 1.1//EN" "http://www.w3.org/Graphics/SVG/1.1/DTD/svg11.dtd">
<svg width="3000px" height="3000px" version="1.1" xmlns="http://www.w3.org/2000/svg" xmlns:xlink="http://www.w3.org/1999/xlink">
<g id="ideograms">
<g id="highlighttrack_2">
<path d="M1500.823,397.500 A1102.500,1102.500 40.000 0,1 1508.363,397.532 L1509.160,292.535 A1207.500,1207.500 0.000 0,0 1500.902,292.500 Z" style="stroke-width:2.0;stroke:rgb(128,125,186);stroke-linecap:round;fill:rgb(158,154,200);" />
<path d="M1527.099,397.833 A1102.500,1102.500 40.000 0,1 1531.431,397.948 L1534.425,292.991 A1207.500,1207.500 0.000 0,0 1529.680,292.865 Z" style="stroke-width:2.0;stroke:rgb(128,125,186);stroke-linecap:round;fill:rgb(158,154,200);" />
<path d="M1539.485,398.207 A1102.500,1102.500 40.000 0,1 1544.895,398.414 L1549.171,293.502 A1207.500,1207.500 0.000 0,0 1543.246,293.275 Z" style="stroke-width:2.0;stroke:rgb(128,125,186);stroke-linecap:round;fill:rgb(158,154,200);" />
<path d="M1561.836,399.235 A1102.500,1102.500 40.000 0,1 1566.408,399.502 L1572.732,294.692 A1207.500,1207.500 0.000 0,0 1567.725,294.401 Z" style="stroke-width:2.0;stroke:rgb(128,125,186);stroke-linecap:round;fill:rgb(158,154,200);" />
<path d="M1574.525,400.022 A1102.500,1102.500 40.000 0,1 1577.136,400.202 L1584.482,295.459 A1207.500,1207.500 0.000 0,0 1581.623,295.262 Z" style="stroke-width:2.0;stroke:rgb(128,125,186);stroke-linecap:round;fill:rgb(158,154,200);" />
<path d="M1577.250,400.210 A1102.500,1102.500 40.000 0,1 1588.536,401.061 L1596.968,296.400 A1207.500,1207.500 0.000 0,0 1584.607,295.468 Z" style="stroke-width:2.0;stroke:rgb(128,125,186);stroke-linecap:round;fill:rgb(158,154,200);" />
<path d="M1588.596,401.066 A1102.500,1102.500 40.000 0,1 1594.969,401.598 L1604.014,296.988 A1207.500,1207.500 0.000 0,0 1597.034,296.405 Z" style="stroke-width:2.0;stroke:rgb(128,125,186);stroke-linecap:round;fill:rgb(158,154,200);" />
<path d="M1595.490,401.643 A1102.500,1102.500 40.000 0,1 1596.631,401.743 L1605.834,297.147 A1207.500,1207.500 0.000 0,0 1604.585,297.038 Z" style="stroke-width:2.0;stroke:rgb(128,125,186);stroke-linecap:round;fill:rgb(158,154,200);" />
<path d="M1596.571,401.738 A1102.500,1102.500 40.000 0,1 1601.116,402.147 L1610.746,297.589 A1207.500,1207.500 0.000 0,0 1605.768,297.141 Z" style="stroke-width:2.0;stroke:rgb(128,125,186);stroke-linecap:round;fill:rgb(158,154,200);" />
<path d="M1658.702,408.982 A1102.500,1102.500 40.000 0,1 1663.896,409.750 L1679.505,305.917 A1207.500,1207.500 0.000 0,0 1673.817,305.076 Z" style="stroke-width:2.0;stroke:rgb(128,125,186);stroke-linecap:round;fill:rgb(158,154,200);" />
<path d="M1670.858,410.820 A1102.500,1102.500 40.000 0,1 1677.738,411.921 L1694.666,308.295 A1207.500,1207.500 0.000 0,0 1687.130,307.088 Z" style="stroke-width:2.0;stroke:rgb(128,125,186);stroke-linecap:round;fill:rgb(158,154,200);" />
<path d="M1677.921,411.951 A1102.500,1102.500 40.000 0,1 1684.761,413.092 L1702.358,309.577 A1207.500,1207.500 0.000 0,0 1694.866,308.327 Z" style="stroke-width:2.0;stroke:rgb(128,125,186);stroke-linecap:round;fill:rgb(158,154,200);" />
<path d="M1710.453,417.773 A1102.500,1102.500 40.000 0,1 1715.411,418.749 L1735.927,315.772 A1207.500,1207.500 0.000 0,0 1730.496,314.703 Z" style="stroke-width:2.0;stroke:rgb(128,125,186);stroke-linecap:round;fill:rgb(158,154,200);" />
<path d="M1715.352,418.737 A1102.500,1102.500 40.000 0,1 1717.245,419.116 L1737.935,316.174 A1207.500,1207.500 0.000 0,0 1735.862,315.760 Z" style="stroke-width:2.0;stroke:rgb(128,125,186);stroke-linecap:round;fill:rgb(158,154,200);" />
<path d="M1717.464,419.160 A1102.500,1102.500 40.000 0,1 1724.210,420.539 L1745.564,317.733 A1207.500,1207.500 0.000 0,0 1738.175,316.223 Z" style="stroke-width:2.0;stroke:rgb(128,125,186);stroke-linecap:round;fill:rgb(158,154,200);" />
<path d="M1734.071,422.634 A1102.500,1102.500 40.000 0,1 1740.029,423.946 L1762.889,321.465 A1207.500,1207.500 0.000 0,0 1756.363,320.028 Z" style="stroke-width:2.0;stroke:rgb(128,125,186);stroke-linecap:round;fill:rgb(158,154,200);" />
<path d="M1841.364,451.679 A1102.500,1102.500 40.000 0,1 1843.727,452.452 L1876.463,352.685 A1207.500,1207.500 0.000 0,0 1873.875,351.839 Z" style="stroke-width:2.0;stroke:rgb(128,125,186);stroke-linecap:round;fill:rgb(158,154,200);" />
<path d="M1843.779,452.469 A1102.500,1102.500 40.000 0,1 1846.156,453.252 L1879.123,353.561 A1207.500,1207.500 0.000 0,0 1876.520,352.704 Z" style="stroke-width:2.0;stroke:rgb(128,125,186);stroke-linecap:round;fill:rgb(158,154,200);" />
<path d="M1918.129,479.866 A1102.500,1102.500 40.000 0,1 1925.715,483.008 L1966.259,386.151 A1207.500,1207.500 0.000 0,0 1957.951,382.710 Z" style="stroke-width:2.0;stroke:rgb(128,125,186);stroke-linecap:round;fill:rgb(158,154,200);" />
<path d="M1931.782,485.569 A1102.500,1102.500 40.000 0,1 1939.265,488.787 L1981.100,392.481 A1207.500,1207.500 0.000 0,0 1972.904,388.956 Z" style="stroke-width:2.0;stroke:rgb(128,125,186);stroke-linecap:round;fill:rgb(158,154,200);" />
<path d="M1939.845,489.039 A1102.500,1102.500 40.000 0,1 1943.906,490.815 L1986.182,394.702 A1207.500,1207.500 0.000 0,0 1981.735,392.757 Z" style="stroke-width:2.0;stroke:rgb(128,125,186);stroke-linecap:round;fill:rgb(158,154,200);" />
<path d="M1948.781,492.974 A1102.500,1102.500 40.000 0,1 1954.198,495.405 L1997.455,399.729 A1207.500,1207.500 0.000 0,0 1991.522,397.067 Z" style="stroke-width:2.0;stroke:rgb(128,125,186);stroke-linecap:round;fill:rgb(158,154,200);" />
<path d="M1994.934,514.837 A1102.500,1102.500 40.000 0,1 2010.175,522.643 L2058.763,429.561 A1207.500,1207.500 0.000 0,0 2042.070,421.012 Z" style="stroke-width:2.0;stroke:rgb(128,125,186);stroke-linecap:round;fill:rgb(158,154,200);" />
<path d="M2010.823,522.981 A1102.500,1102.500 40.000 0,1 2023.275,529.593 L2073.110,437.173 A1207.500,1207.500 0.000 0,0 2059.473,429.931 Z" style="stroke-width:2.0;stroke:rgb(128,125,186);stroke-linecap:round;fill:rgb(158,154,200);" />
<path d="M2023.342,529.629 A1102.500,1102.500 40.000 0,1 2025.759,530.937 L2075.831,438.645 A1207.500,1207.500 0.000 0,0 2073.184,437.213 Z" style="stroke-width:2.0;stroke:rgb(128,125,186);stroke-linecap:round;fill:rgb(158,154,200);" />
<path d="M2029.741,533.108 A1102.500,1102.500 40.000 0,1 2033.066,534.937 L2083.834,443.026 A1207.500,1207.500 0.000 0,0 2080.193,441.023 Z" style="stroke-width:2.0;stroke:rgb(128,125,186);stroke-linecap:round;fill:rgb(158,154,200);" />
<path d="M2040.024,538.813 A1102.500,1102.500 40.000 0,1 2051.337,545.257 L2103.845,454.329 A1207.500,1207.500 0.000 0,0 2091.455,447.272 Z" style="stroke-width:2.0;stroke:rgb(128,125,186);stroke-linecap:round;fill:rgb(158,154,200);" />
<path d="M2102.763,576.862 A1102.500,1102.500 40.000 0,1 2104.314,577.877 L2161.868,490.056 A1207.500,1207.500 0.000 0,0 2160.169,488.944 Z" style="stroke-width:2.0;stroke:rgb(128,125,186);stroke-linecap:round;fill:rgb(158,154,200);" />
<path d="M2119.853,588.250 A1102.500,1102.500 40.000 0,1 2124.552,591.462 L2184.033,504.935 A1207.500,1207.500 0.000 0,0 2178.887,501.417 Z" style="stroke-width:2.0;stroke:rgb(128,125,186);stroke-linecap:round;fill:rgb(158,154,200);" />
<path d="M2134.903,598.665 A1102.500,1102.500 40.000 0,1 2136.252,599.617 L2196.848,513.866 A1207.500,1207.500 0.000 0,0 2195.370,512.823 Z" style="stroke-width:2.0;stroke:rgb(128,125,186);stroke-linecap:round;fill:rgb(158,154,200);" />
<path d="M2157.898,615.310 A1102.500,1102.500 40.000 0,1 2160.035,616.903 L2222.896,532.799 A1207.500,1207.500 0.000 0,0 2220.555,531.054 Z" style="stroke-width:2.0;stroke:rgb(128,125,186);stroke-linecap:round;fill:rgb(158,154,200);" />
<path d="M2160.227,617.047 A1102.500,1102.500 40.000 0,1 2162.269,618.577 L2225.342,534.632 A1207.500,1207.500 0.000 0,0 2223.106,532.956 Z" style="stroke-width:2.0;stroke:rgb(128,125,186);stroke-linecap:round;fill:rgb(158,154,200);" />
<path d="M2167.414,622.467 A1102.500,1102.500 40.000 0,1 2173.581,627.191 L2237.732,544.067 A1207.500,1207.500 0.000 0,0 2230.977,538.892 Z" style="stroke-width:2.0;stroke:rgb(128,125,186);stroke-linecap:round;fill:rgb(158,154,200);" />
<path d="M2207.189,654.193 A1102.500,1102.500 40.000 0,1 2214.764,660.584 L2282.837,580.640 A1207.500,1207.500 0.000 0,0 2274.540,573.640 Z" style="stroke-width:2.0;stroke:rgb(128,125,186);stroke-linecap:round;fill:rgb(158,154,200);" />
<path d="M2230.790,674.499 A1102.500,1102.500 40.000 0,1 2234.847,678.108 L2304.833,599.833 A1207.500,1207.500 0.000 0,0 2300.389,595.880 Z" style="stroke-width:2.0;stroke:rgb(128,125,186);stroke-linecap:round;fill:rgb(158,154,200);" />
<path d="M2234.815,678.079 A1102.500,1102.500 40.000 0,1 2238.975,681.818 L2309.354,603.896 A1207.500,1207.500 0.000 0,0 2304.797,599.801 Z" style="stroke-width:2.0;stroke:rgb(128,125,186);stroke-linecap:round;fill:rgb(158,154,200);" />
<path d="M2257.683,699.111 A1102.500,1102.500 40.000 0,1 2262.576,703.769 L2335.202,627.937 A1207.500,1207.500 0.000 0,0 2329.843,622.836 Z" style="stroke-width:2.0;stroke:rgb(128,125,186);stroke-linecap:round;fill:rgb(158,154,200);" />
<path d="M2263.095,704.267 A1102.500,1102.500 40.000 0,1 2266.171,707.227 L2339.139,631.725 A1207.500,1207.500 0.000 0,0 2335.771,628.482 Z" style="stroke-width:2.0;stroke:rgb(128,125,186);stroke-linecap:round;fill:rgb(158,154,200);" />
<path d="M2271.983,712.886 A1102.500,1102.500 40.000 0,1 2275.653,716.502 L2349.525,641.883 A1207.500,1207.500 0.000 0,0 2345.505,637.923 Z" style="stroke-width:2.0;stroke:rgb(128,125,186);stroke-linecap:round;fill:rgb(158,154,200);" />
<path d="M2289.553,730.512 A1102.500,1102.500 40.000 0,1 2293.913,735.011 L2369.524,662.154 A1207.500,1207.500 0.000 0,0 2364.749,657.228 Z" style="stroke-width:2.0;stroke:rgb(128,125,186);stroke-linecap:round;fill:rgb(158,154,200);" />
<path d="M2316.122,758.750 A1102.500,1102.500 40.000 0,1 2318.274,761.126 L2396.205,690.757 A1207.500,1207.500 0.000 0,0 2393.848,688.155 Z" style="stroke-width:2.0;stroke:rgb(128,125,186);stroke-linecap:round;fill:rgb(158,154,200);" />
<path d="M2326.833,770.718 A1102.500,1102.500 40.000 0,1 2335.772,780.978 L2415.369,712.500 A1207.500,1207.500 0.000 0,0 2405.579,701.262 Z" style="stroke-width:2.0;stroke:rgb(128,125,186);stroke-linecap:round;fill:rgb(158,154,200);" />
<path d="M2344.898,791.725 A1102.500,1102.500 40.000 0,1 2350.347,798.276 L2431.332,731.445 A1207.500,1207.500 0.000 0,0 2425.364,724.270 Z" style="stroke-width:2.0;stroke:rgb(128,125,186);stroke-linecap:round;fill:rgb(158,154,200);" />
<path d="M2374.339,828.407 A1102.500,1102.500 40.000 0,1 2374.694,828.869 L2457.998,764.952 A1207.500,1207.500 0.000 0,0 2457.609,764.445 Z" style="stroke-width:2.0;stroke:rgb(128,125,186);stroke-linecap:round;fill:rgb(158,154,200);" />
<path d="M2378.065,833.285 A1102.500,1102.500 40.000 0,1 2381.642,838.023 L2465.608,774.978 A1207.500,1207.500 0.000 0,0 2461.690,769.789 Z" style="stroke-width:2.0;stroke:rgb(128,125,186);stroke-linecap:round;fill:rgb(158,154,200);" />
<path d="M2381.973,838.464 A1102.500,1102.500 40.000 0,1 2386.622,844.708 L2471.063,782.300 A1207.500,1207.500 0.000 0,0 2465.970,775.460 Z" style="stroke-width:2.0;stroke:rgb(128,125,186);stroke-linecap:round;fill:rgb(158,154,200);" />
<path d="M2398.624,861.266 A1102.500,1102.500 40.000 0,1 2400.440,863.828 L2486.196,803.240 A1207.500,1207.500 0.000 0,0 2484.207,800.434 Z" style="stroke-width:2.0;stroke:rgb(128,125,186);stroke-linecap:round;fill:rgb(158,154,200);" />
<path d="M2420.014,892.480 A1102.500,1102.500 40.000 0,1 2422.180,895.773 L2510.007,838.228 A1207.500,1207.500 0.000 0,0 2507.634,834.621 Z" style="stroke-width:2.0;stroke:rgb(128,125,186);stroke-linecap:round;fill:rgb(158,154,200);" />
<path d="M2442.160,927.426 A1102.500,1102.500 40.000 0,1 2449.338,939.408 L2539.751,886.018 A1207.500,1207.500 0.000 0,0 2531.889,872.895 Z" style="stroke-width:2.0;stroke:rgb(128,125,186);stroke-linecap:round;fill:rgb(158,154,200);" />
<path d="M2452.859,945.414 A1102.500,1102.500 40.000 0,1 2457.839,954.059 L2549.062,902.065 A1207.500,1207.500 0.000 0,0 2543.608,892.596 Z" style="stroke-width:2.0;stroke:rgb(128,125,186);stroke-linecap:round;fill:rgb(158,154,200);" />
<path d="M2482.756,1000.303 A1102.500,1102.500 40.000 0,1 2484.911,1004.565 L2578.713,957.381 A1207.500,1207.500 0.000 0,0 2576.352,952.713 Z" style="stroke-width:2.0;stroke:rgb(128,125,186);stroke-linecap:round;fill:rgb(158,154,200);" />
<path d="M2486.513,1007.763 A1102.500,1102.500 40.000 0,1 2490.640,1016.122 L2584.987,970.039 A1207.500,1207.500 0.000 0,0 2580.467,960.883 Z" style="stroke-width:2.0;stroke:rgb(128,125,186);stroke-linecap:round;fill:rgb(158,154,200);" />
<path d="M2491.608,1018.107 A1102.500,1102.500 40.000 0,1 2492.756,1020.477 L2587.304,974.808 A1207.500,1207.500 0.000 0,0 2586.046,972.213 Z" style="stroke-width:2.0;stroke:rgb(128,125,186);stroke-linecap:round;fill:rgb(158,154,200);" />
<path d="M2499.806,1035.356 A1102.500,1102.500 40.000 0,1 2501.891,1039.869 L2597.309,996.047 A1207.500,1207.500 0.000 0,0 2595.026,991.104 Z" style="stroke-width:2.0;stroke:rgb(128,125,186);stroke-linecap:round;fill:rgb(158,154,200);" />
<path d="M2503.469,1043.320 A1102.500,1102.500 40.000 0,1 2505.894,1048.686 L2601.693,1005.704 A1207.500,1207.500 0.000 0,0 2599.037,999.827 Z" style="stroke-width:2.0;stroke:rgb(128,125,186);stroke-linecap:round;fill:rgb(158,154,200);" />
<path d="M2514.510,1068.404 A1102.500,1102.500 40.000 0,1 2517.331,1075.096 L2614.220,1034.628 A1207.500,1207.500 0.000 0,0 2611.130,1027.299 Z" style="stroke-width:2.0;stroke:rgb(128,125,186);stroke-linecap:round;fill:rgb(158,154,200);" />
<path d="M2582.708,1292.037 A1102.500,1102.500 40.000 0,1 2583.487,1296.134 L2686.677,1276.719 A1207.500,1207.500 0.000 0,0 2685.824,1272.231 Z" style="stroke-width:2.0;stroke:rgb(128,125,186);stroke-linecap:round;fill:rgb(158,154,200);" />
<path d="M2583.503,1296.215 A1102.500,1102.500 40.000 0,1 2585.034,1304.531 L2688.370,1285.915 A1207.500,1207.500 0.000 0,0 2686.693,1276.807 Z" style="stroke-width:2.0;stroke:rgb(128,125,186);stroke-linecap:round;fill:rgb(158,154,200);" />
<path d="M2586.047,1310.242 A1102.500,1102.500 40.000 0,1 2586.456,1312.595 L2689.928,1294.747 A1207.500,1207.500 0.000 0,0 2689.480,1292.170 Z" style="stroke-width:2.0;stroke:rgb(128,125,186);stroke-linecap:round;fill:rgb(158,154,200);" />
<path d="M2589.683,1332.380 A1102.500,1102.500 40.000 0,1 2591.015,1341.277 L2694.921,1326.160 A1207.500,1207.500 0.000 0,0 2693.463,1316.416 Z" style="stroke-width:2.0;stroke:rgb(128,125,186);stroke-linecap:round;fill:rgb(158,154,200);" />
<path d="M2592.657,1353.009 A1102.500,1102.500 40.000 0,1 2593.882,1362.416 L2698.061,1349.313 A1207.500,1207.500 0.000 0,0 2696.720,1339.010 Z" style="stroke-width:2.0;stroke:rgb(128,125,186);stroke-linecap:round;fill:rgb(158,154,200);" />
<path d="M2597.694,1397.169 A1102.500,1102.500 40.000 0,1 2598.322,1404.108 L2702.924,1394.976 A1207.500,1207.500 0.000 0,0 2702.236,1387.376 Z" style="stroke-width:2.0;stroke:rgb(128,125,186);stroke-linecap:round;fill:rgb(158,154,200);" />
<path d="M2598.619,1407.569 A1102.500,1102.500 40.000 0,1 2599.205,1414.823 L2703.891,1406.711 A1207.500,1207.500 0.000 0,0 2703.249,1398.766 Z" style="stroke-width:2.0;stroke:rgb(128,125,186);stroke-linecap:round;fill:rgb(158,154,200);" />
<path d="M2599.627,1420.461 A1102.500,1102.500 40.000 0,1 2599.981,1425.519 L2704.741,1418.425 A1207.500,1207.500 0.000 0,0 2704.354,1412.886 Z" style="stroke-width:2.0;stroke:rgb(128,125,186);stroke-linecap:round;fill:rgb(158,154,200);" />
<path d="M2599.975,1425.432 A1102.500,1102.500 40.000 0,1 2600.342,1431.046 L2705.136,1424.479 A1207.500,1207.500 0.000 0,0 2704.735,1418.330 Z" style="stroke-width:2.0;stroke:rgb(128,125,186);stroke-linecap:round;fill:rgb(158,154,200);" />
<path d="M2600.498,1433.588 A1102.500,1102.500 40.000 0,1 2600.924,1441.066 L2705.774,1435.454 A1207.500,1207.500 0.000 0,0 2705.307,1427.263 Z" style="stroke-width:2.0;stroke:rgb(128,125,186);stroke-linecap:round;fill:rgb(158,154,200);" />
<path d="M2602.454,1489.915 A1102.500,1102.500 40.000 0,1 2602.479,1493.169 L2707.477,1492.519 A1207.500,1207.500 0.000 0,0 2707.449,1488.954 Z" style="stroke-width:2.0;stroke:rgb(128,125,186);stroke-linecap:round;fill:rgb(158,154,200);" />
<path d="M2602.478,1493.044 A1102.500,1102.500 40.000 0,1 2602.486,1494.483 L2707.485,1493.958 A1207.500,1207.500 0.000 0,0 2707.476,1492.381 Z" style="stroke-width:2.0;stroke:rgb(128,125,186);stroke-linecap:round;fill:rgb(158,154,200);" />
<path d="M2600.464,1566.969 A1102.500,1102.500 40.000 0,1 2599.844,1576.484 L2704.591,1583.768 A1207.500,1207.500 0.000 0,0 2705.270,1573.347 Z" style="stroke-width:2.0;stroke:rgb(128,125,186);stroke-linecap:round;fill:rgb(158,154,200);" />
<path d="M2595.518,1623.878 A1102.500,1102.500 40.000 0,1 2595.099,1627.534 L2699.394,1639.680 A1207.500,1207.500 0.000 0,0 2699.853,1635.676 Z" style="stroke-width:2.0;stroke:rgb(128,125,186);stroke-linecap:round;fill:rgb(158,154,200);" />
<path d="M2590.410,1662.829 A1102.500,1102.500 40.000 0,1 2589.597,1668.181 L2693.368,1684.199 A1207.500,1207.500 0.000 0,0 2694.258,1678.337 Z" style="stroke-width:2.0;stroke:rgb(128,125,186);stroke-linecap:round;fill:rgb(158,154,200);" />
<path d="M2585.411,1693.361 A1102.500,1102.500 40.000 0,1 2584.339,1699.289 L2687.609,1718.269 A1207.500,1207.500 0.000 0,0 2688.784,1711.777 Z" style="stroke-width:2.0;stroke:rgb(128,125,186);stroke-linecap:round;fill:rgb(158,154,200);" />
<path d="M2584.187,1700.110 A1102.500,1102.500 40.000 0,1 2582.806,1707.455 L2685.930,1727.213 A1207.500,1207.500 0.000 0,0 2687.443,1719.168 Z" style="stroke-width:2.0;stroke:rgb(128,125,186);stroke-linecap:round;fill:rgb(158,154,200);" />
<path d="M2566.171,1780.686 A1102.500,1102.500 40.000 0,1 2563.238,1791.601 L2664.499,1819.372 A1207.500,1207.500 0.000 0,0 2667.712,1807.418 Z" style="stroke-width:2.0;stroke:rgb(128,125,186);stroke-linecap:round;fill:rgb(158,154,200);" />
<path d="M2563.075,1792.195 A1102.500,1102.500 40.000 0,1 2562.181,1795.426 L2663.342,1823.562 A1207.500,1207.500 0.000 0,0 2664.320,1820.023 Z" style="stroke-width:2.0;stroke:rgb(128,125,186);stroke-linecap:round;fill:rgb(158,154,200);" />
<path d="M2561.997,1796.088 A1102.500,1102.500 40.000 0,1 2561.702,1797.144 L2662.817,1825.443 A1207.500,1207.500 0.000 0,0 2663.140,1824.287 Z" style="stroke-width:2.0;stroke:rgb(128,125,186);stroke-linecap:round;fill:rgb(158,154,200);" />
<path d="M2560.022,1803.082 A1102.500,1102.500 40.000 0,1 2558.718,1807.608 L2659.548,1836.904 A1207.500,1207.500 0.000 0,0 2660.977,1831.947 Z" style="stroke-width:2.0;stroke:rgb(128,125,186);stroke-linecap:round;fill:rgb(158,154,200);" />
<path d="M2558.637,1807.886 A1102.500,1102.500 40.000 0,1 2557.539,1811.637 L2658.257,1841.317 A1207.500,1207.500 0.000 0,0 2659.460,1837.208 Z" style="stroke-width:2.0;stroke:rgb(128,125,186);stroke-linecap:round;fill:rgb(158,154,200);" />
<path d="M2534.385,1881.516 A1102.500,1102.500 40.000 0,1 2533.203,1884.706 L2631.603,1921.344 A1207.500,1207.500 0.000 0,0 2632.898,1917.850 Z" style="stroke-width:2.0;stroke:rgb(128,125,186);stroke-linecap:round;fill:rgb(158,154,200);" />
<path d="M2532.009,1887.897 A1102.500,1102.500 40.000 0,1 2528.509,1897.083 L2626.463,1934.900 A1207.500,1207.500 0.000 0,0 2630.295,1924.840 Z" style="stroke-width:2.0;stroke:rgb(128,125,186);stroke-linecap:round;fill:rgb(158,154,200);" />
<path d="M2523.228,1910.501 A1102.500,1102.500 40.000 0,1 2521.224,1915.460 L2618.484,1955.027 A1207.500,1207.500 0.000 0,0 2620.678,1949.596 Z" style="stroke-width:2.0;stroke:rgb(128,125,186);stroke-linecap:round;fill:rgb(158,154,200);" />
<path d="M2521.111,1915.738 A1102.500,1102.500 40.000 0,1 2520.227,1917.903 L2617.392,1957.703 A1207.500,1207.500 0.000 0,0 2618.360,1955.332 Z" style="stroke-width:2.0;stroke:rgb(128,125,186);stroke-linecap:round;fill:rgb(158,154,200);" />
<path d="M2518.263,1922.666 A1102.500,1102.500 40.000 0,1 2515.483,1929.303 L2612.195,1970.189 A1207.500,1207.500 0.000 0,0 2615.241,1962.920 Z" style="stroke-width:2.0;stroke:rgb(128,125,186);stroke-linecap:round;fill:rgb(158,154,200);" />
<path d="M2446.148,2065.959 A1102.500,1102.500 40.000 0,1 2443.070,2071.074 L2532.886,2125.462 A1207.500,1207.500 0.000 0,0 2536.258,2119.860 Z" style="stroke-width:2.0;stroke:rgb(128,125,186);stroke-linecap:round;fill:rgb(158,154,200);" />
<path d="M2422.598,2103.589 A1102.500,1102.500 40.000 0,1 2420.317,2107.061 L2507.966,2164.877 A1207.500,1207.500 0.000 0,0 2510.464,2161.074 Z" style="stroke-width:2.0;stroke:rgb(128,125,186);stroke-linecap:round;fill:rgb(158,154,200);" />
<path d="M2400.235,2136.462 A1102.500,1102.500 40.000 0,1 2398.105,2139.463 L2483.639,2200.365 A1207.500,1207.500 0.000 0,0 2485.971,2197.078 Z" style="stroke-width:2.0;stroke:rgb(128,125,186);stroke-linecap:round;fill:rgb(158,154,200);" />
<path d="M2372.918,2173.439 A1102.500,1102.500 40.000 0,1 2371.848,2174.824 L2454.881,2239.093 A1207.500,1207.500 0.000 0,0 2456.053,2237.576 Z" style="stroke-width:2.0;stroke:rgb(128,125,186);stroke-linecap:round;fill:rgb(158,154,200);" />
<path d="M2344.056,2209.278 A1102.500,1102.500 40.000 0,1 2337.720,2216.751 L2417.503,2285.013 A1207.500,1207.500 0.000 0,0 2424.442,2276.829 Z" style="stroke-width:2.0;stroke:rgb(128,125,186);stroke-linecap:round;fill:rgb(158,154,200);" />
<path d="M2308.595,2249.454 A1102.500,1102.500 40.000 0,1 2306.613,2251.586 L2383.433,2323.166 A1207.500,1207.500 0.000 0,0 2385.604,2320.830 Z" style="stroke-width:2.0;stroke:rgb(128,125,186);stroke-linecap:round;fill:rgb(158,154,200);" />
<path d="M2296.344,2262.458 A1102.500,1102.500 40.000 0,1 2295.122,2263.733 L2370.847,2336.469 A1207.500,1207.500 0.000 0,0 2372.186,2335.073 Z" style="stroke-width:2.0;stroke:rgb(128,125,186);stroke-linecap:round;fill:rgb(158,154,200);" />
<path d="M2294.388,2264.495 A1102.500,1102.500 40.000 0,1 2289.096,2269.957 L2364.248,2343.286 A1207.500,1207.500 0.000 0,0 2370.045,2337.304 Z" style="stroke-width:2.0;stroke:rgb(128,125,186);stroke-linecap:round;fill:rgb(158,154,200);" />
<path d="M2287.602,2271.485 A1102.500,1102.500 40.000 0,1 2283.689,2275.460 L2358.326,2349.313 A1207.500,1207.500 0.000 0,0 2362.612,2344.960 Z" style="stroke-width:2.0;stroke:rgb(128,125,186);stroke-linecap:round;fill:rgb(158,154,200);" />
<path d="M2278.819,2280.351 A1102.500,1102.500 40.000 0,1 2273.021,2286.095 L2346.642,2360.961 A1207.500,1207.500 0.000 0,0 2352.992,2354.670 Z" style="stroke-width:2.0;stroke:rgb(128,125,186);stroke-linecap:round;fill:rgb(158,154,200);" />
<path d="M2251.270,2306.907 A1102.500,1102.500 40.000 0,1 2246.360,2311.451 L2317.442,2388.732 A1207.500,1207.500 0.000 0,0 2322.820,2383.756 Z" style="stroke-width:2.0;stroke:rgb(128,125,186);stroke-linecap:round;fill:rgb(158,154,200);" />
<path d="M2244.798,2312.885 A1102.500,1102.500 40.000 0,1 2238.869,2318.278 L2309.238,2396.209 A1207.500,1207.500 0.000 0,0 2315.731,2390.303 Z" style="stroke-width:2.0;stroke:rgb(128,125,186);stroke-linecap:round;fill:rgb(158,154,200);" />
<path d="M2223.775,2331.659 A1102.500,1102.500 40.000 0,1 2216.356,2338.058 L2284.580,2417.873 A1207.500,1207.500 0.000 0,0 2292.706,2410.864 Z" style="stroke-width:2.0;stroke:rgb(128,125,186);stroke-linecap:round;fill:rgb(158,154,200);" />
<path d="M2120.637,2411.217 A1102.500,1102.500 40.000 0,1 2118.350,2412.770 L2177.241,2499.701 A1207.500,1207.500 0.000 0,0 2179.745,2498.000 Z" style="stroke-width:2.0;stroke:rgb(128,125,186);stroke-linecap:round;fill:rgb(158,154,200);" />
<path d="M2114.318,2415.489 A1102.500,1102.500 40.000 0,1 2111.163,2417.598 L2169.369,2504.988 A1207.500,1207.500 0.000 0,0 2172.824,2502.678 Z" style="stroke-width:2.0;stroke:rgb(128,125,186);stroke-linecap:round;fill:rgb(158,154,200);" />
<path d="M2100.070,2424.890 A1102.500,1102.500 40.000 0,1 2096.182,2427.401 L2152.961,2515.725 A1207.500,1207.500 0.000 0,0 2157.220,2512.975 Z" style="stroke-width:2.0;stroke:rgb(128,125,186);stroke-linecap:round;fill:rgb(158,154,200);" />
<path d="M2094.324,2428.593 A1102.500,1102.500 40.000 0,1 2092.614,2429.685 L2149.054,2518.227 A1207.500,1207.500 0.000 0,0 2150.926,2517.031 Z" style="stroke-width:2.0;stroke:rgb(128,125,186);stroke-linecap:round;fill:rgb(158,154,200);" />
<path d="M2092.246,2429.920 A1102.500,1102.500 40.000 0,1 2083.849,2435.215 L2139.453,2524.283 A1207.500,1207.500 0.000 0,0 2148.651,2518.483 Z" style="stroke-width:2.0;stroke:rgb(128,125,186);stroke-linecap:round;fill:rgb(158,154,200);" />
<path d="M2061.141,2449.014 A1102.500,1102.500 40.000 0,1 2057.010,2451.444 L2110.059,2542.058 A1207.500,1207.500 0.000 0,0 2114.583,2539.396 Z" style="stroke-width:2.0;stroke:rgb(128,125,186);stroke-linecap:round;fill:rgb(158,154,200);" />
<path d="M2052.511,2454.064 A1102.500,1102.500 40.000 0,1 2046.968,2457.253 L2099.060,2548.420 A1207.500,1207.500 0.000 0,0 2105.131,2544.927 Z" style="stroke-width:2.0;stroke:rgb(128,125,186);stroke-linecap:round;fill:rgb(158,154,200);" />
<path d="M2025.264,2469.332 A1102.500,1102.500 40.000 0,1 2012.464,2476.159 L2061.270,2569.127 A1207.500,1207.500 0.000 0,0 2075.289,2561.649 Z" style="stroke-width:2.0;stroke:rgb(128,125,186);stroke-linecap:round;fill:rgb(158,154,200);" />
<path d="M2005.621,2479.721 A1102.500,1102.500 40.000 0,1 2002.508,2481.322 L2050.366,2574.781 A1207.500,1207.500 0.000 0,0 2053.775,2573.028 Z" style="stroke-width:2.0;stroke:rgb(128,125,186);stroke-linecap:round;fill:rgb(158,154,200);" />
<path d="M1991.676,2486.793 A1102.500,1102.500 40.000 0,1 1987.382,2488.921 L2033.799,2583.104 A1207.500,1207.500 0.000 0,0 2038.502,2580.774 Z" style="stroke-width:2.0;stroke:rgb(128,125,186);stroke-linecap:round;fill:rgb(158,154,200);" />
<path d="M1631.739,2594.601 A1102.500,1102.500 40.000 0,1 1628.182,2595.023 L1640.390,2699.311 A1207.500,1207.500 0.000 0,0 1644.286,2698.849 Z" style="stroke-width:2.0;stroke:rgb(128,125,186);stroke-linecap:round;fill:rgb(158,154,200);" />
<path d="M1595.527,2598.354 A1102.500,1102.500 40.000 0,1 1587.785,2599.000 L1596.146,2703.666 A1207.500,1207.500 0.000 0,0 1604.625,2702.959 Z" style="stroke-width:2.0;stroke:rgb(128,125,186);stroke-linecap:round;fill:rgb(116,196,118);" />
<path d="M1587.378,2599.032 A1102.500,1102.500 40.000 0,1 1568.338,2600.380 L1574.847,2705.178 A1207.500,1207.500 0.000 0,0 1595.699,2703.702 Z" style="stroke-width:2.0;stroke:rgb(128,125,186);stroke-linecap:round;fill:rgb(116,196,118);" />
<path d="M1479.321,2602.306 A1102.500,1102.500 40.000 0,1 1475.315,2602.224 L1472.964,2707.197 A1207.500,1207.500 0.000 0,0 1477.352,2707.288 Z" style="stroke-width:2.0;stroke:rgb(128,125,186);stroke-linecap:round;fill:rgb(158,154,200);" />
<path d="M1465.483,2601.960 A1102.500,1102.500 40.000 0,1 1461.919,2601.842 L1458.293,2706.779 A1207.500,1207.500 0.000 0,0 1462.196,2706.908 Z" style="stroke-width:2.0;stroke:rgb(128,125,186);stroke-linecap:round;fill:rgb(158,154,200);" />
<path d="M1461.887,2601.841 A1102.500,1102.500 40.000 0,1 1459.190,2601.744 L1455.303,2706.672 A1207.500,1207.500 0.000 0,0 1458.257,2706.778 Z" style="stroke-width:2.0;stroke:rgb(128,125,186);stroke-linecap:round;fill:rgb(158,154,200);" />
<path d="M1450.763,2601.400 A1102.500,1102.500 40.000 0,1 1447.707,2601.259 L1442.727,2706.141 A1207.500,1207.500 0.000 0,0 1446.073,2706.295 Z" style="stroke-width:2.0;stroke:rgb(128,125,186);stroke-linecap:round;fill:rgb(158,154,200);" />
<path d="M1437.145,2600.707 A1102.500,1102.500 40.000 0,1 1435.039,2600.585 L1428.852,2705.402 A1207.500,1207.500 0.000 0,0 1431.159,2705.536 Z" style="stroke-width:2.0;stroke:rgb(128,125,186);stroke-linecap:round;fill:rgb(158,154,200);" />
<path d="M1434.925,2600.578 A1102.500,1102.500 40.000 0,1 1432.916,2600.457 L1426.528,2705.263 A1207.500,1207.500 0.000 0,0 1428.727,2705.395 Z" style="stroke-width:2.0;stroke:rgb(128,125,186);stroke-linecap:round;fill:rgb(158,154,200);" />
<path d="M1429.124,2600.219 A1102.500,1102.500 40.000 0,1 1421.895,2599.730 L1414.456,2704.466 A1207.500,1207.500 0.000 0,0 1422.374,2705.002 Z" style="stroke-width:2.0;stroke:rgb(128,125,186);stroke-linecap:round;fill:rgb(158,154,200);" />
<path d="M1411.343,2598.930 A1102.500,1102.500 40.000 0,1 1409.191,2598.754 L1400.543,2703.397 A1207.500,1207.500 0.000 0,0 1402.900,2703.590 Z" style="stroke-width:2.0;stroke:rgb(128,125,186);stroke-linecap:round;fill:rgb(158,154,200);" />
<path d="M1409.077,2598.744 A1102.500,1102.500 40.000 0,1 1407.398,2598.604 L1398.579,2703.233 A1207.500,1207.500 0.000 0,0 1400.418,2703.387 Z" style="stroke-width:2.0;stroke:rgb(128,125,186);stroke-linecap:round;fill:rgb(158,154,200);" />
<path d="M1407.312,2598.597 A1102.500,1102.500 40.000 0,1 1404.411,2598.348 L1395.307,2702.953 A1207.500,1207.500 0.000 0,0 1398.484,2703.225 Z" style="stroke-width:2.0;stroke:rgb(128,125,186);stroke-linecap:round;fill:rgb(158,154,200);" />
<path d="M1402.657,2598.194 A1102.500,1102.500 40.000 0,1 1400.702,2598.019 L1391.245,2702.592 A1207.500,1207.500 0.000 0,0 1393.386,2702.784 Z" style="stroke-width:2.0;stroke:rgb(128,125,186);stroke-linecap:round;fill:rgb(158,154,200);" />
<path d="M1400.631,2598.013 A1102.500,1102.500 40.000 0,1 1399.344,2597.896 L1389.758,2702.457 A1207.500,1207.500 0.000 0,0 1391.167,2702.585 Z" style="stroke-width:2.0;stroke:rgb(128,125,186);stroke-linecap:round;fill:rgb(158,154,200);" />
<path d="M1398.221,2597.792 A1102.500,1102.500 40.000 0,1 1395.973,2597.581 L1386.066,2702.113 A1207.500,1207.500 0.000 0,0 1388.527,2702.344 Z" style="stroke-width:2.0;stroke:rgb(128,125,186);stroke-linecap:round;fill:rgb(158,154,200);" />
<path d="M1395.897,2597.574 A1102.500,1102.500 40.000 0,1 1392.560,2597.252 L1382.328,2701.753 A1207.500,1207.500 0.000 0,0 1385.983,2702.105 Z" style="stroke-width:2.0;stroke:rgb(128,125,186);stroke-linecap:round;fill:rgb(158,154,200);" />
<path d="M1390.433,2597.042 A1102.500,1102.500 40.000 0,1 1388.887,2596.887 L1378.305,2701.352 A1207.500,1207.500 0.000 0,0 1379.998,2701.522 Z" style="stroke-width:2.0;stroke:rgb(128,125,186);stroke-linecap:round;fill:rgb(158,154,200);" />
<path d="M1388.871,2596.885 A1102.500,1102.500 40.000 0,1 1384.397,2596.422 L1373.387,2700.844 A1207.500,1207.500 0.000 0,0 1378.287,2701.350 Z" style="stroke-width:2.0;stroke:rgb(128,125,186);stroke-linecap:round;fill:rgb(158,154,200);" />
<path d="M1382.852,2596.258 A1102.500,1102.500 40.000 0,1 1379.518,2595.897 L1368.044,2700.268 A1207.500,1207.500 0.000 0,0 1371.695,2700.664 Z" style="stroke-width:2.0;stroke:rgb(128,125,186);stroke-linecap:round;fill:rgb(158,154,200);" />
<path d="M1375.541,2595.453 A1102.500,1102.500 40.000 0,1 1373.754,2595.248 L1361.731,2699.557 A1207.500,1207.500 0.000 0,0 1363.688,2699.781 Z" style="stroke-width:2.0;stroke:rgb(128,125,186);stroke-linecap:round;fill:rgb(158,154,200);" />
<path d="M1373.678,2595.239 A1102.500,1102.500 40.000 0,1 1367.327,2594.488 L1354.692,2698.725 A1207.500,1207.500 0.000 0,0 1361.648,2699.548 Z" style="stroke-width:2.0;stroke:rgb(128,125,186);stroke-linecap:round;fill:rgb(158,154,200);" />
<path d="M1365.433,2594.257 A1102.500,1102.500 40.000 0,1 1358.942,2593.439 L1345.508,2697.576 A1207.500,1207.500 0.000 0,0 1352.617,2698.472 Z" style="stroke-width:2.0;stroke:rgb(128,125,186);stroke-linecap:round;fill:rgb(158,154,200);" />
<path d="M1345.025,2591.554 A1102.500,1102.500 40.000 0,1 1340.072,2590.839 L1324.841,2694.728 A1207.500,1207.500 0.000 0,0 1330.266,2695.511 Z" style="stroke-width:2.0;stroke:rgb(128,125,186);stroke-linecap:round;fill:rgb(158,154,200);" />
<path d="M1311.460,2586.259 A1102.500,1102.500 40.000 0,1 1303.150,2584.784 L1284.403,2688.097 A1207.500,1207.500 0.000 0,0 1293.504,2689.712 Z" style="stroke-width:2.0;stroke:rgb(128,125,186);stroke-linecap:round;fill:rgb(158,154,200);" />
<path d="M1270.960,2578.447 A1102.500,1102.500 40.000 0,1 1265.587,2577.291 L1243.262,2679.891 A1207.500,1207.500 0.000 0,0 1249.147,2681.156 Z" style="stroke-width:2.0;stroke:rgb(128,125,186);stroke-linecap:round;fill:rgb(158,154,200);" />
<path d="M1231.849,2569.393 A1102.500,1102.500 40.000 0,1 1226.125,2567.941 L1200.042,2669.650 A1207.500,1207.500 0.000 0,0 1206.310,2671.240 Z" style="stroke-width:2.0;stroke:rgb(128,125,186);stroke-linecap:round;fill:rgb(158,154,200);" />
<path d="M1210.950,2563.934 A1102.500,1102.500 40.000 0,1 1206.580,2562.737 L1178.635,2663.951 A1207.500,1207.500 0.000 0,0 1183.421,2665.261 Z" style="stroke-width:2.0;stroke:rgb(128,125,186);stroke-linecap:round;fill:rgb(158,154,200);" />
<path d="M1156.727,2547.698 A1102.500,1102.500 40.000 0,1 1150.532,2545.647 L1117.249,2645.233 A1207.500,1207.500 0.000 0,0 1124.035,2647.478 Z" style="stroke-width:2.0;stroke:rgb(128,125,186);stroke-linecap:round;fill:rgb(158,154,200);" />
<path d="M1146.491,2544.288 A1102.500,1102.500 40.000 0,1 1144.153,2543.494 L1110.262,2642.874 A1207.500,1207.500 0.000 0,0 1112.824,2643.744 Z" style="stroke-width:2.0;stroke:rgb(128,125,186);stroke-linecap:round;fill:rgb(158,154,200);" />
<path d="M1116.117,2533.509 A1102.500,1102.500 40.000 0,1 1114.328,2532.843 L1077.598,2631.208 A1207.500,1207.500 0.000 0,0 1079.556,2631.938 Z" style="stroke-width:2.0;stroke:rgb(128,125,186);stroke-linecap:round;fill:rgb(158,154,200);" />
<path d="M1101.549,2527.980 A1102.500,1102.500 40.000 0,1 1099.003,2526.990 L1060.813,2624.798 A1207.500,1207.500 0.000 0,0 1063.601,2625.883 Z" style="stroke-width:2.0;stroke:rgb(128,125,186);stroke-linecap:round;fill:rgb(158,154,200);" />
<path d="M1099.003,2526.990 A1102.500,1102.500 40.000 0,1 1092.840,2524.562 L1054.063,2622.139 A1207.500,1207.500 0.000 0,0 1060.813,2624.798 Z" style="stroke-width:2.0;stroke:rgb(128,125,186);stroke-linecap:round;fill:rgb(158,154,200);" />
<path d="M1068.608,2514.597 A1102.500,1102.500 40.000 0,1 1063.481,2512.402 L1021.908,2608.821 A1207.500,1207.500 0.000 0,0 1027.523,2611.225 Z" style="stroke-width:2.0;stroke:rgb(128,125,186);stroke-linecap:round;fill:rgb(158,154,200);" />
<path d="M1023.826,2494.367 A1102.500,1102.500 40.000 0,1 1017.052,2491.094 L971.057,2585.484 A1207.500,1207.500 0.000 0,0 978.476,2589.068 Z" style="stroke-width:2.0;stroke:rgb(128,125,186);stroke-linecap:round;fill:rgb(158,154,200);" />
<path d="M1004.116,2484.685 A1102.500,1102.500 40.000 0,1 999.505,2482.350 L951.839,2575.907 A1207.500,1207.500 0.000 0,0 956.888,2578.465 Z" style="stroke-width:2.0;stroke:rgb(128,125,186);stroke-linecap:round;fill:rgb(158,154,200);" />
<path d="M987.293,2476.032 A1102.500,1102.500 40.000 0,1 985.657,2475.171 L936.672,2568.044 A1207.500,1207.500 0.000 0,0 938.464,2568.987 Z" style="stroke-width:2.0;stroke:rgb(128,125,186);stroke-linecap:round;fill:rgb(158,154,200);" />
<path d="M985.330,2474.998 A1102.500,1102.500 40.000 0,1 980.837,2472.613 L931.393,2565.243 A1207.500,1207.500 0.000 0,0 936.313,2567.855 Z" style="stroke-width:2.0;stroke:rgb(128,125,186);stroke-linecap:round;fill:rgb(158,154,200);" />
<path d="M980.856,2472.623 A1102.500,1102.500 40.000 0,1 978.563,2471.396 L928.902,2563.910 A1207.500,1207.500 0.000 0,0 931.414,2565.254 Z" style="stroke-width:2.0;stroke:rgb(128,125,186);stroke-linecap:round;fill:rgb(158,154,200);" />
<path d="M949.744,2455.366 A1102.500,1102.500 40.000 0,1 947.619,2454.139 L895.012,2545.010 A1207.500,1207.500 0.000 0,0 897.338,2546.353 Z" style="stroke-width:2.0;stroke:rgb(128,125,186);stroke-linecap:round;fill:rgb(158,154,200);" />
<path d="M916.677,2435.543 A1102.500,1102.500 40.000 0,1 914.444,2434.147 L858.677,2523.113 A1207.500,1207.500 0.000 0,0 861.122,2524.642 Z" style="stroke-width:2.0;stroke:rgb(128,125,186);stroke-linecap:round;fill:rgb(158,154,200);" />
<path d="M910.159,2431.447 A1102.500,1102.500 40.000 0,1 901.026,2425.600 L843.981,2513.753 A1207.500,1207.500 0.000 0,0 853.983,2520.156 Z" style="stroke-width:2.0;stroke:rgb(128,125,186);stroke-linecap:round;fill:rgb(158,154,200);" />
<path d="M890.969,2419.014 A1102.500,1102.500 40.000 0,1 875.919,2408.861 L816.483,2495.420 A1207.500,1207.500 0.000 0,0 832.966,2506.540 Z" style="stroke-width:2.0;stroke:rgb(128,125,186);stroke-linecap:round;fill:rgb(158,154,200);" />
<path d="M872.234,2406.320 A1102.500,1102.500 40.000 0,1 870.998,2405.463 L811.093,2491.697 A1207.500,1207.500 0.000 0,0 812.447,2492.636 Z" style="stroke-width:2.0;stroke:rgb(128,125,186);stroke-linecap:round;fill:rgb(158,154,200);" />
<path d="M853.821,2393.286 A1102.500,1102.500 40.000 0,1 848.545,2389.445 L786.502,2474.154 A1207.500,1207.500 0.000 0,0 792.280,2478.361 Z" style="stroke-width:2.0;stroke:rgb(128,125,186);stroke-linecap:round;fill:rgb(158,154,200);" />
<path d="M848.031,2389.068 A1102.500,1102.500 40.000 0,1 845.225,2387.004 L782.865,2471.480 A1207.500,1207.500 0.000 0,0 785.938,2473.741 Z" style="stroke-width:2.0;stroke:rgb(128,125,186);stroke-linecap:round;fill:rgb(158,154,200);" />
<path d="M839.069,2382.426 A1102.500,1102.500 40.000 0,1 832.893,2377.767 L769.359,2461.364 A1207.500,1207.500 0.000 0,0 776.123,2466.467 Z" style="stroke-width:2.0;stroke:rgb(128,125,186);stroke-linecap:round;fill:rgb(158,154,200);" />
<path d="M806.774,2357.289 A1102.500,1102.500 40.000 0,1 805.414,2356.187 L739.263,2437.729 A1207.500,1207.500 0.000 0,0 740.753,2438.935 Z" style="stroke-width:2.0;stroke:rgb(128,125,186);stroke-linecap:round;fill:rgb(158,154,200);" />
<path d="M798.472,2350.509 A1102.500,1102.500 40.000 0,1 794.279,2347.033 L727.068,2427.703 A1207.500,1207.500 0.000 0,0 731.660,2431.510 Z" style="stroke-width:2.0;stroke:rgb(128,125,186);stroke-linecap:round;fill:rgb(158,154,200);" />
<path d="M744.465,2302.916 A1102.500,1102.500 40.000 0,1 740.923,2299.568 L668.630,2375.717 A1207.500,1207.500 0.000 0,0 672.510,2379.384 Z" style="stroke-width:2.0;stroke:rgb(128,125,186);stroke-linecap:round;fill:rgb(158,154,200);" />
<path d="M736.479,2295.325 A1102.500,1102.500 40.000 0,1 728.565,2287.651 L655.095,2362.665 A1207.500,1207.500 0.000 0,0 663.763,2371.070 Z" style="stroke-width:2.0;stroke:rgb(128,125,186);stroke-linecap:round;fill:rgb(158,154,200);" />
<path d="M717.714,2276.875 A1102.500,1102.500 40.000 0,1 711.882,2270.958 L636.823,2344.382 A1207.500,1207.500 0.000 0,0 643.211,2350.863 Z" style="stroke-width:2.0;stroke:rgb(128,125,186);stroke-linecap:round;fill:rgb(158,154,200);" />
<path d="M710.157,2269.190 A1102.500,1102.500 40.000 0,1 706.230,2265.138 L630.633,2338.008 A1207.500,1207.500 0.000 0,0 634.933,2342.447 Z" style="stroke-width:2.0;stroke:rgb(128,125,186);stroke-linecap:round;fill:rgb(158,154,200);" />
<path d="M676.075,2232.567 A1102.500,1102.500 40.000 0,1 669.200,2224.761 L590.077,2293.786 A1207.500,1207.500 0.000 0,0 597.606,2302.335 Z" style="stroke-width:2.0;stroke:rgb(128,125,186);stroke-linecap:round;fill:rgb(158,154,200);" />
<path d="M643.214,2193.847 A1102.500,1102.500 40.000 0,1 641.333,2191.518 L559.555,2257.377 A1207.500,1207.500 0.000 0,0 561.615,2259.927 Z" style="stroke-width:2.0;stroke:rgb(128,125,186);stroke-linecap:round;fill:rgb(158,154,200);" />
<path d="M583.934,2113.457 A1102.500,1102.500 40.000 0,1 576.022,2101.473 L488.024,2158.756 A1207.500,1207.500 0.000 0,0 496.690,2171.881 Z" style="stroke-width:2.0;stroke:rgb(128,125,186);stroke-linecap:round;fill:rgb(158,154,200);" />
<path d="M573.924,2098.239 A1102.500,1102.500 40.000 0,1 573.312,2097.291 L485.057,2154.176 A1207.500,1207.500 0.000 0,0 485.727,2155.214 Z" style="stroke-width:2.0;stroke:rgb(128,125,186);stroke-linecap:round;fill:rgb(158,154,200);" />
<path d="M573.253,2097.199 A1102.500,1102.500 40.000 0,1 572.174,2095.521 L483.810,2152.237 A1207.500,1207.500 0.000 0,0 484.992,2154.075 Z" style="stroke-width:2.0;stroke:rgb(128,125,186);stroke-linecap:round;fill:rgb(158,154,200);" />
<path d="M569.264,2090.962 A1102.500,1102.500 40.000 0,1 564.871,2083.987 L475.812,2139.605 A1207.500,1207.500 0.000 0,0 480.622,2147.245 Z" style="stroke-width:2.0;stroke:rgb(128,125,186);stroke-linecap:round;fill:rgb(158,154,200);" />
<path d="M557.803,2072.513 A1102.500,1102.500 40.000 0,1 555.037,2067.935 L465.040,2122.024 A1207.500,1207.500 0.000 0,0 468.070,2127.038 Z" style="stroke-width:2.0;stroke:rgb(128,125,186);stroke-linecap:round;fill:rgb(158,154,200);" />
<path d="M554.677,2067.337 A1102.500,1102.500 40.000 0,1 554.105,2066.383 L464.020,2120.324 A1207.500,1207.500 0.000 0,0 464.646,2121.369 Z" style="stroke-width:2.0;stroke:rgb(128,125,186);stroke-linecap:round;fill:rgb(158,154,200);" />
<path d="M535.799,2034.624 A1102.500,1102.500 40.000 0,1 534.944,2033.079 L443.034,2083.848 A1207.500,1207.500 0.000 0,0 443.971,2085.541 Z" style="stroke-width:2.0;stroke:rgb(128,125,186);stroke-linecap:round;fill:rgb(158,154,200);" />
<path d="M523.086,2011.024 A1102.500,1102.500 40.000 0,1 519.712,2004.520 L426.351,2052.570 A1207.500,1207.500 0.000 0,0 430.047,2059.693 Z" style="stroke-width:2.0;stroke:rgb(128,125,186);stroke-linecap:round;fill:rgb(158,154,200);" />
<path d="M519.746,2004.588 A1102.500,1102.500 40.000 0,1 517.481,2000.162 L423.908,2047.797 A1207.500,1207.500 0.000 0,0 426.389,2052.644 Z" style="stroke-width:2.0;stroke:rgb(128,125,186);stroke-linecap:round;fill:rgb(158,154,200);" />
<path d="M517.009,1999.234 A1102.500,1102.500 40.000 0,1 516.063,1997.367 L422.354,2044.735 A1207.500,1207.500 0.000 0,0 423.391,2046.780 Z" style="stroke-width:2.0;stroke:rgb(128,125,186);stroke-linecap:round;fill:rgb(158,154,200);" />
<path d="M513.971,1993.207 A1102.500,1102.500 40.000 0,1 509.742,1984.660 L415.432,2030.819 A1207.500,1207.500 0.000 0,0 420.063,2040.179 Z" style="stroke-width:2.0;stroke:rgb(128,125,186);stroke-linecap:round;fill:rgb(158,154,200);" />
<path d="M509.725,1984.626 A1102.500,1102.500 40.000 0,1 507.942,1980.965 L413.460,2026.771 A1207.500,1207.500 0.000 0,0 415.414,2030.781 Z" style="stroke-width:2.0;stroke:rgb(128,125,186);stroke-linecap:round;fill:rgb(158,154,200);" />
<path d="M488.901,1939.528 A1102.500,1102.500 40.000 0,1 488.309,1938.163 L391.957,1979.893 A1207.500,1207.500 0.000 0,0 392.606,1981.388 Z" style="stroke-width:2.0;stroke:rgb(128,125,186);stroke-linecap:round;fill:rgb(158,154,200);" />
<path d="M488.278,1938.093 A1102.500,1102.500 40.000 0,1 483.416,1926.689 L386.598,1967.326 A1207.500,1207.500 0.000 0,0 391.924,1979.816 Z" style="stroke-width:2.0;stroke:rgb(128,125,186);stroke-linecap:round;fill:rgb(158,154,200);" />
<path d="M462.850,1873.933 A1102.500,1102.500 40.000 0,1 457.779,1859.558 L358.520,1893.801 A1207.500,1207.500 0.000 0,0 364.074,1909.546 Z" style="stroke-width:2.0;stroke:rgb(128,125,186);stroke-linecap:round;fill:rgb(158,154,200);" />
<path d="M449.719,1835.287 A1102.500,1102.500 40.000 0,1 447.729,1828.986 L347.513,1860.318 A1207.500,1207.500 0.000 0,0 349.693,1867.219 Z" style="stroke-width:2.0;stroke:rgb(128,125,186);stroke-linecap:round;fill:rgb(158,154,200);" />
<path d="M447.127,1827.055 A1102.500,1102.500 40.000 0,1 444.065,1817.028 L343.499,1847.221 A1207.500,1207.500 0.000 0,0 346.853,1858.203 Z" style="stroke-width:2.0;stroke:rgb(128,125,186);stroke-linecap:round;fill:rgb(158,154,200);" />
<path d="M440.982,1806.575 A1102.500,1102.500 40.000 0,1 440.678,1805.522 L339.790,1834.619 A1207.500,1207.500 0.000 0,0 340.124,1835.772 Z" style="stroke-width:2.0;stroke:rgb(128,125,186);stroke-linecap:round;fill:rgb(158,154,200);" />
<path d="M434.462,1783.082 A1102.500,1102.500 40.000 0,1 432.486,1775.535 L330.818,1801.777 A1207.500,1207.500 0.000 0,0 332.982,1810.042 Z" style="stroke-width:2.0;stroke:rgb(128,125,186);stroke-linecap:round;fill:rgb(158,154,200);" />
<path d="M420.233,1722.730 A1102.500,1102.500 40.000 0,1 419.398,1718.644 L316.483,1739.467 A1207.500,1207.500 0.000 0,0 317.398,1743.942 Z" style="stroke-width:2.0;stroke:rgb(128,125,186);stroke-linecap:round;fill:rgb(158,154,200);" />
<path d="M407.240,1646.222 A1102.500,1102.500 40.000 0,1 407.017,1644.553 L302.924,1658.319 A1207.500,1207.500 0.000 0,0 303.167,1660.148 Z" style="stroke-width:2.0;stroke:rgb(128,125,186);stroke-linecap:round;fill:rgb(158,154,200);" />
<path d="M407.020,1644.574 A1102.500,1102.500 40.000 0,1 405.745,1634.580 L301.530,1647.397 A1207.500,1207.500 0.000 0,0 302.927,1658.343 Z" style="stroke-width:2.0;stroke:rgb(128,125,186);stroke-linecap:round;fill:rgb(158,154,200);" />
<path d="M403.305,1612.992 A1102.500,1102.500 40.000 0,1 403.088,1610.861 L298.620,1621.419 A1207.500,1207.500 0.000 0,0 298.858,1623.753 Z" style="stroke-width:2.0;stroke:rgb(128,125,186);stroke-linecap:round;fill:rgb(158,154,200);" />
<path d="M401.440,1593.120 A1102.500,1102.500 40.000 0,1 400.883,1586.306 L296.206,1594.526 A1207.500,1207.500 0.000 0,0 296.815,1601.989 Z" style="stroke-width:2.0;stroke:rgb(128,125,186);stroke-linecap:round;fill:rgb(158,154,200);" />
<path d="M400.649,1583.268 A1102.500,1102.500 40.000 0,1 399.914,1572.924 L295.144,1579.869 A1207.500,1207.500 0.000 0,0 295.949,1591.198 Z" style="stroke-width:2.0;stroke:rgb(128,125,186);stroke-linecap:round;fill:rgb(158,154,200);" />
<path d="M399.774,1570.775 A1102.500,1102.500 40.000 0,1 399.608,1568.147 L294.809,1574.638 A1207.500,1207.500 0.000 0,0 294.991,1577.516 Z" style="stroke-width:2.0;stroke:rgb(128,125,186);stroke-linecap:round;fill:rgb(158,154,200);" />
<path d="M399.564,1567.434 A1102.500,1102.500 40.000 0,1 399.086,1559.123 L294.238,1564.754 A1207.500,1207.500 0.000 0,0 294.761,1573.857 Z" style="stroke-width:2.0;stroke:rgb(128,125,186);stroke-linecap:round;fill:rgb(158,154,200);" />
<path d="M398.307,1542.180 A1102.500,1102.500 40.000 0,1 398.105,1536.525 L293.163,1540.003 A1207.500,1207.500 0.000 0,0 293.384,1546.197 Z" style="stroke-width:2.0;stroke:rgb(128,125,186);stroke-linecap:round;fill:rgb(158,154,200);" />
<path d="M398.103,1536.470 A1102.500,1102.500 40.000 0,1 398.071,1535.473 L293.125,1538.852 A1207.500,1207.500 0.000 0,0 293.161,1539.944 Z" style="stroke-width:2.0;stroke:rgb(128,125,186);stroke-linecap:round;fill:rgb(158,154,200);" />
<path d="M397.511,1504.987 A1102.500,1102.500 40.000 0,1 397.505,1496.547 L292.506,1496.218 A1207.500,1207.500 0.000 0,0 292.512,1505.462 Z" style="stroke-width:2.0;stroke:rgb(128,125,186);stroke-linecap:round;fill:rgb(158,154,200);" />
<path d="M397.621,1483.654 A1102.500,1102.500 40.000 0,1 397.763,1475.919 L292.788,1473.626 A1207.500,1207.500 0.000 0,0 292.633,1482.097 Z" style="stroke-width:2.0;stroke:rgb(128,125,186);stroke-linecap:round;fill:rgb(158,154,200);" />
<path d="M398.000,1466.790 A1102.500,1102.500 40.000 0,1 398.137,1462.540 L293.197,1458.972 A1207.500,1207.500 0.000 0,0 293.048,1463.628 Z" style="stroke-width:2.0;stroke:rgb(128,125,186);stroke-linecap:round;fill:rgb(158,154,200);" />
<path d="M398.356,1456.569 A1102.500,1102.500 40.000 0,1 398.999,1442.534 L294.141,1437.061 A1207.500,1207.500 0.000 0,0 293.437,1452.432 Z" style="stroke-width:2.0;stroke:rgb(128,125,186);stroke-linecap:round;fill:rgb(158,154,200);" />
<path d="M400.965,1412.663 A1102.500,1102.500 40.000 0,1 401.851,1402.151 L297.265,1392.832 A1207.500,1207.500 0.000 0,0 296.295,1404.345 Z" style="stroke-width:2.0;stroke:rgb(128,125,186);stroke-linecap:round;fill:rgb(158,154,200);" />
<path d="M402.053,1399.908 A1102.500,1102.500 40.000 0,1 402.819,1391.832 L298.326,1381.531 A1207.500,1207.500 0.000 0,0 297.486,1390.376 Z" style="stroke-width:2.0;stroke:rgb(128,125,186);stroke-linecap:round;fill:rgb(158,154,200);" />
<path d="M405.665,1366.071 A1102.500,1102.500 40.000 0,1 406.079,1362.728 L301.896,1349.654 A1207.500,1207.500 0.000 0,0 301.442,1353.316 Z" style="stroke-width:2.0;stroke:rgb(128,125,186);stroke-linecap:round;fill:rgb(158,154,200);" />
<path d="M411.751,1323.304 A1102.500,1102.500 40.000 0,1 412.379,1319.479 L308.797,1302.287 A1207.500,1207.500 0.000 0,0 308.109,1306.476 Z" style="stroke-width:2.0;stroke:rgb(128,125,186);stroke-linecap:round;fill:rgb(158,154,200);" />
<path d="M446.430,1175.197 A1102.500,1102.500 40.000 0,1 448.160,1169.638 L347.985,1138.174 A1207.500,1207.500 0.000 0,0 346.090,1144.264 Z" style="stroke-width:2.0;stroke:rgb(128,125,186);stroke-linecap:round;fill:rgb(158,154,200);" />
<path d="M454.116,1151.240 A1102.500,1102.500 40.000 0,1 454.394,1150.407 L354.813,1117.113 A1207.500,1207.500 0.000 0,0 354.508,1118.025 Z" style="stroke-width:2.0;stroke:rgb(128,125,186);stroke-linecap:round;fill:rgb(158,154,200);" />
<path d="M460.712,1132.050 A1102.500,1102.500 40.000 0,1 460.876,1131.588 L361.912,1096.501 A1207.500,1207.500 0.000 0,0 361.732,1097.007 Z" style="stroke-width:2.0;stroke:rgb(128,125,186);stroke-linecap:round;fill:rgb(158,154,200);" />
<path d="M460.914,1131.480 A1102.500,1102.500 40.000 0,1 463.866,1123.260 L365.187,1087.380 A1207.500,1207.500 0.000 0,0 361.954,1096.383 Z" style="stroke-width:2.0;stroke:rgb(128,125,186);stroke-linecap:round;fill:rgb(158,154,200);" />
<path d="M472.903,1099.277 A1102.500,1102.500 40.000 0,1 474.373,1095.532 L376.694,1057.011 A1207.500,1207.500 0.000 0,0 375.085,1061.113 Z" style="stroke-width:2.0;stroke:rgb(128,125,186);stroke-linecap:round;fill:rgb(158,154,200);" />
<path d="M507.623,1019.694 A1102.500,1102.500 40.000 0,1 508.651,1017.576 L414.237,971.630 A1207.500,1207.500 0.000 0,0 413.110,973.951 Z" style="stroke-width:2.0;stroke:rgb(128,125,186);stroke-linecap:round;fill:rgb(158,154,200);" />
<path d="M509.981,1014.852 A1102.500,1102.500 40.000 0,1 515.654,1003.443 L421.906,956.152 A1207.500,1207.500 0.000 0,0 415.694,968.647 Z" style="stroke-width:2.0;stroke:rgb(128,125,186);stroke-linecap:round;fill:rgb(158,154,200);" />
<path d="M515.673,1003.404 A1102.500,1102.500 40.000 0,1 518.436,997.965 L424.954,950.152 A1207.500,1207.500 0.000 0,0 421.928,956.109 Z" style="stroke-width:2.0;stroke:rgb(128,125,186);stroke-linecap:round;fill:rgb(158,154,200);" />
<path d="M519.312,996.257 A1102.500,1102.500 40.000 0,1 520.128,994.672 L426.806,946.546 A1207.500,1207.500 0.000 0,0 425.913,948.282 Z" style="stroke-width:2.0;stroke:rgb(128,125,186);stroke-linecap:round;fill:rgb(158,154,200);" />
<path d="M525.611,984.177 A1102.500,1102.500 40.000 0,1 527.316,980.971 L434.679,931.540 A1207.500,1207.500 0.000 0,0 432.813,935.051 Z" style="stroke-width:2.0;stroke:rgb(128,125,186);stroke-linecap:round;fill:rgb(158,154,200);" />
<path d="M536.214,964.629 A1102.500,1102.500 40.000 0,1 539.745,958.321 L448.292,906.733 A1207.500,1207.500 0.000 0,0 444.424,913.641 Z" style="stroke-width:2.0;stroke:rgb(128,125,186);stroke-linecap:round;fill:rgb(158,154,200);" />
<path d="M548.442,943.185 A1102.500,1102.500 40.000 0,1 550.605,939.505 L460.186,886.124 A1207.500,1207.500 0.000 0,0 457.817,890.155 Z" style="stroke-width:2.0;stroke:rgb(128,125,186);stroke-linecap:round;fill:rgb(158,154,200);" />
<path d="M557.725,927.615 A1102.500,1102.500 40.000 0,1 560.864,922.479 L471.423,867.477 A1207.500,1207.500 0.000 0,0 467.985,873.102 Z" style="stroke-width:2.0;stroke:rgb(128,125,186);stroke-linecap:round;fill:rgb(158,154,200);" />
<path d="M569.497,908.671 A1102.500,1102.500 40.000 0,1 572.376,904.164 L484.031,847.418 A1207.500,1207.500 0.000 0,0 480.877,852.354 Z" style="stroke-width:2.0;stroke:rgb(128,125,186);stroke-linecap:round;fill:rgb(158,154,200);" />
<path d="M572.364,904.183 A1102.500,1102.500 40.000 0,1 574.056,901.556 L485.871,844.562 A1207.500,1207.500 0.000 0,0 484.018,847.438 Z" style="stroke-width:2.0;stroke:rgb(128,125,186);stroke-linecap:round;fill:rgb(158,154,200);" />
<path d="M585.200,884.657 A1102.500,1102.500 40.000 0,1 586.169,883.219 L499.137,824.478 A1207.500,1207.500 0.000 0,0 498.076,826.053 Z" style="stroke-width:2.0;stroke:rgb(128,125,186);stroke-linecap:round;fill:rgb(158,154,200);" />
<path d="M592.527,873.902 A1102.500,1102.500 40.000 0,1 595.481,869.641 L509.337,809.607 A1207.500,1207.500 0.000 0,0 506.101,814.274 Z" style="stroke-width:2.0;stroke:rgb(128,125,186);stroke-linecap:round;fill:rgb(158,154,200);" />
<path d="M623.290,831.505 A1102.500,1102.500 40.000 0,1 631.457,820.928 L548.738,756.255 A1207.500,1207.500 0.000 0,0 539.794,767.838 Z" style="stroke-width:2.0;stroke:rgb(128,125,186);stroke-linecap:round;fill:rgb(158,154,200);" />
<path d="M643.329,806.011 A1102.500,1102.500 40.000 0,1 648.666,799.473 L567.587,732.757 A1207.500,1207.500 0.000 0,0 561.741,739.917 Z" style="stroke-width:2.0;stroke:rgb(128,125,186);stroke-linecap:round;fill:rgb(158,154,200);" />
<path d="M652.514,794.824 A1102.500,1102.500 40.000 0,1 653.928,793.128 L573.350,725.807 A1207.500,1207.500 0.000 0,0 571.801,727.664 Z" style="stroke-width:2.0;stroke:rgb(128,125,186);stroke-linecap:round;fill:rgb(158,154,200);" />
<path d="M703.091,738.132 A1102.500,1102.500 40.000 0,1 706.172,734.923 L630.569,662.058 A1207.500,1207.500 0.000 0,0 627.195,665.573 Z" style="stroke-width:2.0;stroke:rgb(128,125,186);stroke-linecap:round;fill:rgb(158,154,200);" />
<path d="M706.233,734.860 A1102.500,1102.500 40.000 0,1 708.483,732.532 L633.101,659.439 A1207.500,1207.500 0.000 0,0 630.636,661.989 Z" style="stroke-width:2.0;stroke:rgb(128,125,186);stroke-linecap:round;fill:rgb(158,154,200);" />
<path d="M794.219,653.017 A1102.500,1102.500 40.000 0,1 796.760,650.906 L729.785,570.040 A1207.500,1207.500 0.000 0,0 727.002,572.352 Z" style="stroke-width:2.0;stroke:rgb(128,125,186);stroke-linecap:round;fill:rgb(158,154,200);" />
<path d="M816.187,635.185 A1102.500,1102.500 40.000 0,1 821.163,631.273 L756.512,548.537 A1207.500,1207.500 0.000 0,0 751.062,552.821 Z" style="stroke-width:2.0;stroke:rgb(128,125,186);stroke-linecap:round;fill:rgb(158,154,200);" />
<path d="M821.657,630.887 A1102.500,1102.500 40.000 0,1 824.045,629.029 L759.668,546.079 A1207.500,1207.500 0.000 0,0 757.053,548.114 Z" style="stroke-width:2.0;stroke:rgb(128,125,186);stroke-linecap:round;fill:rgb(158,154,200);" />
<path d="M824.049,629.025 A1102.500,1102.500 40.000 0,1 830.489,624.065 L766.727,540.643 A1207.500,1207.500 0.000 0,0 759.673,546.075 Z" style="stroke-width:2.0;stroke:rgb(128,125,186);stroke-linecap:round;fill:rgb(158,154,200);" />
<path d="M839.862,616.980 A1102.500,1102.500 40.000 0,1 841.002,616.129 L778.240,531.951 A1207.500,1207.500 0.000 0,0 776.991,532.883 Z" style="stroke-width:2.0;stroke:rgb(128,125,186);stroke-linecap:round;fill:rgb(158,154,200);" />
<path d="M841.059,616.087 A1102.500,1102.500 40.000 0,1 846.632,611.959 L784.406,527.384 A1207.500,1207.500 0.000 0,0 778.302,531.904 Z" style="stroke-width:2.0;stroke:rgb(128,125,186);stroke-linecap:round;fill:rgb(158,154,200);" />
<path d="M852.001,608.034 A1102.500,1102.500 40.000 0,1 857.651,603.957 L796.475,518.619 A1207.500,1207.500 0.000 0,0 790.287,523.085 Z" style="stroke-width:2.0;stroke:rgb(128,125,186);stroke-linecap:round;fill:rgb(158,154,200);" />
<path d="M870.410,594.946 A1102.500,1102.500 40.000 0,1 880.938,587.713 L821.980,500.828 A1207.500,1207.500 0.000 0,0 810.449,508.751 Z" style="stroke-width:2.0;stroke:rgb(128,125,186);stroke-linecap:round;fill:rgb(158,154,200);" />
<path d="M881.019,587.657 A1102.500,1102.500 40.000 0,1 883.729,585.825 L825.036,498.761 A1207.500,1207.500 0.000 0,0 822.069,500.768 Z" style="stroke-width:2.0;stroke:rgb(128,125,186);stroke-linecap:round;fill:rgb(158,154,200);" />
<path d="M884.145,585.545 A1102.500,1102.500 40.000 0,1 896.422,577.395 L838.939,489.528 A1207.500,1207.500 0.000 0,0 825.492,498.454 Z" style="stroke-width:2.0;stroke:rgb(128,125,186);stroke-linecap:round;fill:rgb(158,154,200);" />
<path d="M914.964,565.527 A1102.500,1102.500 40.000 0,1 919.018,563.002 L863.686,473.764 A1207.500,1207.500 0.000 0,0 859.246,476.530 Z" style="stroke-width:2.0;stroke:rgb(128,125,186);stroke-linecap:round;fill:rgb(158,154,200);" />
<path d="M919.032,562.993 A1102.500,1102.500 40.000 0,1 924.379,559.699 L869.558,470.146 A1207.500,1207.500 0.000 0,0 863.701,473.754 Z" style="stroke-width:2.0;stroke:rgb(128,125,186);stroke-linecap:round;fill:rgb(158,154,200);" />
<path d="M924.551,559.593 A1102.500,1102.500 40.000 0,1 925.486,559.022 L870.770,469.405 A1207.500,1207.500 0.000 0,0 869.746,470.031 Z" style="stroke-width:2.0;stroke:rgb(128,125,186);stroke-linecap:round;fill:rgb(158,154,200);" />
<path d="M937.814,551.605 A1102.500,1102.500 40.000 0,1 941.688,549.319 L888.515,458.778 A1207.500,1207.500 0.000 0,0 884.273,461.282 Z" style="stroke-width:2.0;stroke:rgb(128,125,186);stroke-linecap:round;fill:rgb(158,154,200);" />
<path d="M978.158,528.822 A1102.500,1102.500 40.000 0,1 979.974,527.848 L930.448,435.262 A1207.500,1207.500 0.000 0,0 928.459,436.329 Z" style="stroke-width:2.0;stroke:rgb(128,125,186);stroke-linecap:round;fill:rgb(158,154,200);" />
<path d="M979.955,527.858 A1102.500,1102.500 40.000 0,1 981.672,526.942 L932.307,434.270 A1207.500,1207.500 0.000 0,0 930.427,435.273 Z" style="stroke-width:2.0;stroke:rgb(128,125,186);stroke-linecap:round;fill:rgb(158,154,200);" />
<path d="M1093.598,475.137 A1102.500,1102.500 40.000 0,1 1096.017,474.181 L1057.542,376.484 A1207.500,1207.500 0.000 0,0 1054.894,377.531 Z" style="stroke-width:2.0;stroke:rgb(128,125,186);stroke-linecap:round;fill:rgb(158,154,200);" />
<path d="M1128.233,462.072 A1102.500,1102.500 40.000 0,1 1134.892,459.710 L1100.120,360.635 A1207.500,1207.500 0.000 0,0 1092.826,363.221 Z" style="stroke-width:2.0;stroke:rgb(128,125,186);stroke-linecap:round;fill:rgb(158,154,200);" />
<path d="M1153.794,453.268 A1102.500,1102.500 40.000 0,1 1159.561,451.378 L1127.138,351.510 A1207.500,1207.500 0.000 0,0 1120.823,353.579 Z" style="stroke-width:2.0;stroke:rgb(128,125,186);stroke-linecap:round;fill:rgb(158,154,200);" />
<path d="M1195.558,440.367 A1102.500,1102.500 40.000 0,1 1199.270,439.308 L1170.629,338.290 A1207.500,1207.500 0.000 0,0 1166.563,339.450 Z" style="stroke-width:2.0;stroke:rgb(128,125,186);stroke-linecap:round;fill:rgb(158,154,200);" />
<path d="M1223.067,432.848 A1102.500,1102.500 40.000 0,1 1233.084,430.298 L1207.664,328.422 A1207.500,1207.500 0.000 0,0 1196.692,331.214 Z" style="stroke-width:2.0;stroke:rgb(128,125,186);stroke-linecap:round;fill:rgb(158,154,200);" />
<path d="M1248.281,426.620 A1102.500,1102.500 40.000 0,1 1254.703,425.135 L1231.342,322.766 A1207.500,1207.500 0.000 0,0 1224.308,324.394 Z" style="stroke-width:2.0;stroke:rgb(128,125,186);stroke-linecap:round;fill:rgb(158,154,200);" />
<path d="M1259.074,424.146 A1102.500,1102.500 40.000 0,1 1262.092,423.475 L1239.434,320.949 A1207.500,1207.500 0.000 0,0 1236.129,321.684 Z" style="stroke-width:2.0;stroke:rgb(128,125,186);stroke-linecap:round;fill:rgb(158,154,200);" />
<path d="M1283.030,419.061 A1102.500,1102.500 40.000 0,1 1288.902,417.898 L1268.798,314.841 A1207.500,1207.500 0.000 0,0 1262.366,316.114 Z" style="stroke-width:2.0;stroke:rgb(128,125,186);stroke-linecap:round;fill:rgb(158,154,200);" />
<path d="M1309.906,414.012 A1102.500,1102.500 40.000 0,1 1328.492,410.922 L1312.158,307.200 A1207.500,1207.500 0.000 0,0 1291.802,310.584 Z" style="stroke-width:2.0;stroke:rgb(128,125,186);stroke-linecap:round;fill:rgb(158,154,200);" />
<path d="M1340.701,409.069 A1102.500,1102.500 40.000 0,1 1351.098,407.601 L1336.917,303.564 A1207.500,1207.500 0.000 0,0 1325.530,305.171 Z" style="stroke-width:2.0;stroke:rgb(128,125,186);stroke-linecap:round;fill:rgb(158,154,200);" />
<path d="M1368.078,405.421 A1102.500,1102.500 40.000 0,1 1370.790,405.098 L1358.484,300.821 A1207.500,1207.500 0.000 0,0 1355.514,301.176 Z" style="stroke-width:2.0;stroke:rgb(128,125,186);stroke-linecap:round;fill:rgb(158,154,200);" />
<path d="M1370.828,405.093 A1102.500,1102.500 40.000 0,1 1380.725,403.971 L1369.365,299.587 A1207.500,1207.500 0.000 0,0 1358.526,300.816 Z" style="stroke-width:2.0;stroke:rgb(128,125,186);stroke-linecap:round;fill:rgb(158,154,200);" />
<path d="M1443.649,398.941 A1102.500,1102.500 40.000 0,1 1456.311,398.366 L1452.150,293.448 A1207.500,1207.500 0.000 0,0 1438.282,294.078 Z" style="stroke-width:2.0;stroke:rgb(128,125,186);stroke-linecap:round;fill:rgb(158,154,200);" />
<path d="M1456.360,398.364 A1102.500,1102.500 40.000 0,1 1464.876,398.060 L1461.531,293.113 A1207.500,1207.500 0.000 0,0 1452.204,293.446 Z" style="stroke-width:2.0;stroke:rgb(128,125,186);stroke-linecap:round;fill:rgb(158,154,200);" />
</g>
<path d="M1500.000,520.000 A980.000,980.000 40.000 1,1 1484.645,520.120 L1483.548,450.129 A1050.000,1050.000 0.000 1,0 1500.000,450.000 Z" style="stroke-width:2.0;stroke:rgb(115,115,115);stroke-linecap:round;fill:rgb(150,150,150);" />
<text x="1511.5" y="2968.0" font-size="39.0px" font-family="CMUBright-Roman" style="text-anchor:middle;fill:rgb(0,0,0);" transform="rotate(-0.4,1511.5,2968.0)" >1</text>
<path d="M1500.000,520.000 A980.000,980.000 40.000 1,1 1484.645,520.120 L1483.548,450.129 A1050.000,1050.000 0.000 1,0 1500.000,450.000 Z" style="stroke-width:2.0;stroke:rgb(115,115,115);stroke-linecap:round;fill:none;" />
</g>
<g id="plot0">
<g id="plot0-axis">
<path d="M1500.000,823.800 A676.200,676.200 40.000 1,1 1489.405,823.883 L1490.787,912.072 A588.000,588.000 0.000 1,0 1500.000,912.000 Z" style="stroke-linecap:round;fill:rgb(240,240,240);" />
</g>
<path d="M 1966.96,1010.93 L 1946.24,1032.62 " style="stroke-width:10.0;stroke:rgb(217,217,217);stroke-linecap:round;fill:rgb(115,115,115);" />
<path d="M 2065.01,1128.51 L 2039.95,1144.99 " style="stroke-width:10.0;stroke:rgb(217,217,217);stroke-linecap:round;fill:rgb(115,115,115);" />
<path d="M 2168.31,1397.02 L 2138.66,1401.59 " style="stroke-width:10.0;stroke:rgb(217,217,217);stroke-linecap:round;fill:rgb(115,115,115);" />
<path d="M 2163.09,1632.50 L 2133.67,1626.62 " style="stroke-width:10.0;stroke:rgb(217,217,217);stroke-linecap:round;fill:rgb(115,115,115);" />
<path d="M 1561.46,2173.40 L 1558.73,2143.53 " style="stroke-width:10.0;stroke:rgb(217,217,217);stroke-linecap:round;fill:rgb(115,115,115);" />
<path d="M 989.96,1056.03 L 1012.59,1075.73 " style="stroke-width:10.0;stroke:rgb(217,217,217);stroke-linecap:round;fill:rgb(115,115,115);" />
<path d="M 1100.23,954.62 L 1117.97,978.82 " style="stroke-width:10.0;stroke:rgb(217,217,217);stroke-linecap:round;fill:rgb(115,115,115);" />
<path d="M 1151.91,920.28 L 1167.35,946.00 " style="stroke-width:10.0;stroke:rgb(217,217,217);stroke-linecap:round;fill:rgb(115,115,115);" />
</g>
<g id="plot1">
<g id="plot1-axis">
<path d="M1500.000,725.800 A774.200,774.200 40.000 1,1 1487.870,725.895 L1489.252,814.084 A686.000,686.000 0.000 1,0 1500.000,814.000 Z" style="stroke-linecap:round;fill:rgb(254,229,217);" />
</g>
<path d="M 1539.99,726.83 L 1538.44,756.79 " style="stroke-width:10.0;stroke:rgb(217,217,217);stroke-linecap:round;fill:rgb(115,115,115);" />
<path d="M 1707.88,754.23 L 1699.82,783.13 " style="stroke-width:10.0;stroke:rgb(217,217,217);stroke-linecap:round;fill:rgb(115,115,115);" />
<path d="M 1970.82,885.42 L 1952.58,909.23 " style="stroke-width:10.0;stroke:rgb(217,217,217);stroke-linecap:round;fill:rgb(115,115,115);" />
<path d="M 2048.16,953.28 L 2026.92,974.47 " style="stroke-width:10.0;stroke:rgb(217,217,217);stroke-linecap:round;fill:rgb(115,115,115);" />
<path d="M 2052.07,957.23 L 2030.68,978.26 " style="stroke-width:10.0;stroke:rgb(217,217,217);stroke-linecap:round;fill:rgb(115,115,115);" />
<path d="M 2080.79,988.07 L 2058.29,1007.91 " style="stroke-width:10.0;stroke:rgb(217,217,217);stroke-linecap:round;fill:rgb(115,115,115);" />
<path d="M 2106.74,1019.12 L 2083.23,1037.75 " style="stroke-width:10.0;stroke:rgb(217,217,217);stroke-linecap:round;fill:rgb(115,115,115);" />
<path d="M 2146.90,1074.67 L 2121.83,1091.15 " style="stroke-width:10.0;stroke:rgb(217,217,217);stroke-linecap:round;fill:rgb(115,115,115);" />
<path d="M 2271.51,1564.48 L 2241.61,1561.98 " style="stroke-width:10.0;stroke:rgb(217,217,217);stroke-linecap:round;fill:rgb(115,115,115);" />
<path d="M 2260.44,1645.34 L 2230.97,1639.71 " style="stroke-width:10.0;stroke:rgb(217,217,217);stroke-linecap:round;fill:rgb(115,115,115);" />
<path d="M 2253.79,1676.61 L 2224.58,1669.76 " style="stroke-width:10.0;stroke:rgb(217,217,217);stroke-linecap:round;fill:rgb(115,115,115);" />
<path d="M 2202.56,1825.25 L 2175.34,1812.65 " style="stroke-width:10.0;stroke:rgb(217,217,217);stroke-linecap:round;fill:rgb(115,115,115);" />
<path d="M 2071.77,2021.98 L 2049.61,2001.76 " style="stroke-width:10.0;stroke:rgb(217,217,217);stroke-linecap:round;fill:rgb(115,115,115);" />
<path d="M 1857.43,2186.75 L 1843.58,2160.14 " style="stroke-width:10.0;stroke:rgb(217,217,217);stroke-linecap:round;fill:rgb(115,115,115);" />
<path d="M 1726.41,2240.35 L 1717.64,2211.66 " style="stroke-width:10.0;stroke:rgb(217,217,217);stroke-linecap:round;fill:rgb(115,115,115);" />
<path d="M 1636.00,2262.16 L 1630.73,2232.63 " style="stroke-width:10.0;stroke:rgb(217,217,217);stroke-linecap:round;fill:rgb(115,115,115);" />
<path d="M 1570.37,2271.00 L 1567.64,2241.12 " style="stroke-width:10.0;stroke:rgb(217,217,217);stroke-linecap:round;fill:rgb(115,115,115);" />
<path d="M 1051.94,2131.37 L 1069.31,2106.91 " style="stroke-width:10.0;stroke:rgb(217,217,217);stroke-linecap:round;fill:rgb(115,115,115);" />
<path d="M 1001.01,2091.94 L 1020.35,2069.01 " style="stroke-width:10.0;stroke:rgb(217,217,217);stroke-linecap:round;fill:rgb(115,115,115);" />
<path d="M 980.77,2074.27 L 1000.89,2052.02 " style="stroke-width:10.0;stroke:rgb(217,217,217);stroke-linecap:round;fill:rgb(115,115,115);" />
<path d="M 916.62,2008.97 L 939.22,1989.25 " style="stroke-width:10.0;stroke:rgb(217,217,217);stroke-linecap:round;fill:rgb(115,115,115);" />
<path d="M 725.94,1514.78 L 755.94,1514.20 " style="stroke-width:10.0;stroke:rgb(217,217,217);stroke-linecap:round;fill:rgb(115,115,115);" />
<path d="M 725.91,1487.21 L 755.90,1487.70 " style="stroke-width:10.0;stroke:rgb(217,217,217);stroke-linecap:round;fill:rgb(115,115,115);" />
<path d="M 755.62,1287.21 L 784.46,1295.45 " style="stroke-width:10.0;stroke:rgb(217,217,217);stroke-linecap:round;fill:rgb(115,115,115);" />
<path d="M 758.46,1277.51 L 787.19,1286.13 " style="stroke-width:10.0;stroke:rgb(217,217,217);stroke-linecap:round;fill:rgb(115,115,115);" />
<path d="M 868.85,1051.64 L 893.30,1069.01 " style="stroke-width:10.0;stroke:rgb(217,217,217);stroke-linecap:round;fill:rgb(115,115,115);" />
<path d="M 916.04,991.69 L 938.67,1011.38 " style="stroke-width:10.0;stroke:rgb(217,217,217);stroke-linecap:round;fill:rgb(115,115,115);" />
<path d="M 930.52,975.52 L 952.58,995.85 " style="stroke-width:10.0;stroke:rgb(217,217,217);stroke-linecap:round;fill:rgb(115,115,115);" />
<path d="M 982.62,924.06 L 1002.67,946.38 " style="stroke-width:10.0;stroke:rgb(217,217,217);stroke-linecap:round;fill:rgb(115,115,115);" />
<path d="M 1042.30,875.58 L 1060.03,899.78 " style="stroke-width:10.0;stroke:rgb(217,217,217);stroke-linecap:round;fill:rgb(115,115,115);" />
<path d="M 1362.70,738.07 L 1368.02,767.60 " style="stroke-width:10.0;stroke:rgb(217,217,217);stroke-linecap:round;fill:rgb(115,115,115);" />
<path d="M 1388.85,733.82 L 1393.16,763.51 " style="stroke-width:10.0;stroke:rgb(217,217,217);stroke-linecap:round;fill:rgb(115,115,115);" />
<path d="M 1426.19,729.33 L 1429.05,759.19 " style="stroke-width:10.0;stroke:rgb(217,217,217);stroke-linecap:round;fill:rgb(115,115,115);" />
</g>
<g id="plot2">
<g id="plot2-axis">
<path d="M1500.000,627.800 A872.200,872.200 40.000 1,1 1486.334,627.907 L1487.716,716.096 A784.000,784.000 0.000 1,0 1500.000,716.000 Z" style="stroke-linecap:round;fill:rgb(239,243,255);" />
</g>
<path d="M 2180.59,2045.47 L 2157.18,2026.70 " style="stroke-width:10.0;stroke:rgb(217,217,217);stroke-linecap:round;fill:rgb(115,115,115);" />
<path d="M 842.13,927.34 L 864.75,947.04 " style="stroke-width:10.0;stroke:rgb(217,217,217);stroke-linecap:round;fill:rgb(115,115,115);" />
</g>
<defs>
<pattern id="vline-sparse" width="10" height="10" patternTransform="rotate(0 0 0)" patternUnits="userSpaceOnUse"><line x1="0" y1="0" x2="0" y2="10" style="stroke:black;stroke-width:2" /></pattern>
<pattern id="checker" width="10" height="10" patternTransform="rotate(45 0 0)" patternUnits="userSpaceOnUse"><line x1="0" y1="0" x2="10" y2="0" style="stroke:black;stroke-width:2" /><line x1="0" y1="0" x2="0" y2="10" style="stroke:black;stroke-width:2" /></pattern>
<pattern id="checker" width="10" height="10" patternTransform="rotate(45 0 0)" patternUnits="userSpaceOnUse"><line x1="0" y1="0" x2="10" y2="0" style="stroke:black;stroke-width:5" /><line x1="0" y1="0" x2="0" y2="10" style="stroke:black;stroke-width:4" /></pattern>
<pattern id="hline" width="10" height="10" patternTransform="rotate(0 0 0)" patternUnits="userSpaceOnUse"><line x1="0" y1="0" x2="10" y2="0" style="stroke:black;stroke-width:5" /></pattern>
<pattern id="hline-sparse" width="10" height="10" patternTransform="rotate(0 0 0)" patternUnits="userSpaceOnUse"><line x1="0" y1="0" x2="10" y2="0" style="stroke:black;stroke-width:2" /></pattern>
<pattern id="vline" width="10" height="10" patternTransform="rotate(0 0 0)" patternUnits="userSpaceOnUse"><line x1="0" y1="0" x2="0" y2="10" style="stroke:black;stroke-width:5" /></pattern>
</defs>
</svg>
